<?xml version="1.0" standalone="no"?>
<!DOCTYPE svg PUBLIC "-//W3C//DTD SVG 20010904//EN"
 "http://www.w3.org/TR/2001/REC-SVG-20010904/DTD/svg10.dtd">
<svg version="1.0" xmlns="http://www.w3.org/2000/svg"
 width="160.000000pt" height="160.000000pt" viewBox="0 0 160.000000 160.000000"
 preserveAspectRatio="xMidYMid meet">
<metadata>
Created by potrace 1.14, written by Peter Selinger 2001-2017
</metadata>
<g transform="translate(0.000000,160.000000) scale(0.100000,-0.100000)"
fill="#000000" stroke="none">
<path d="M764 1558 c-54 -85 -138 -281 -138 -323 -1 -30 17 -77 71 -185 40
-81 75 -165 79 -188 11 -67 29 -66 39 2 4 20 31 87 62 149 31 61 66 137 78
167 23 54 23 55 4 102 -27 70 -147 305 -158 313 -6 3 -22 -14 -37 -37z"/>
<path d="M541 1112 c-47 -74 -136 -268 -166 -362 -36 -116 -42 -197 -20 -285
41 -162 99 -238 245 -317 96 -52 135 -84 152 -125 l11 -28 7 45 c4 25 6 99 5
165 -2 145 -8 157 -104 214 -134 79 -229 214 -232 326 -2 72 12 121 81 275 70
158 74 174 21 92z"/>
<path d="M1020 1142 c0 -5 28 -71 62 -148 61 -136 62 -141 62 -229 1 -78 -3
-97 -26 -146 -35 -71 -101 -137 -204 -205 -45 -29 -85 -62 -89 -71 -7 -21 -7
-301 1 -314 3 -5 18 6 33 24 16 17 66 54 112 81 46 28 103 64 126 80 117 87
179 310 134 481 -27 102 -43 141 -120 300 -62 128 -91 174 -91 147z"/>
</g>
</svg>
